<svg width="210" height="90" viewBox="0 0 210 90" fill="none" xmlns="http://www.w3.org/2000/svg">
<g clip-path="url(#clip0_1345_23581)">
<path d="M44.0247 30.6984C42.5236 30.6984 41.0643 30.6984 39.6049 30.6984C38.1456 30.6984 36.6445 30.6984 35.1017 30.6984C35.1017 33.9358 35.1017 37.1311 35.1017 40.4525C37.7286 39.9059 39.5215 38.3503 40.7724 35.9118C41.6063 36.2902 42.4402 36.6686 43.2741 37.047C41.8982 40.7048 37.2699 44.5728 31.2657 43.1853C25.7202 41.924 22.2594 36.6686 23.135 30.9086C23.9689 25.443 28.9308 21.575 34.6431 22.0375C39.9385 22.4999 43.4826 26.9145 44.0247 30.6984ZM32.1413 30.6984C30.3067 30.6984 28.5138 30.7405 26.7209 30.6984C26.1788 30.6984 26.012 30.9086 25.9703 31.3711C25.5534 34.1039 26.3039 36.4584 28.2636 38.3924C29.3477 39.4435 30.5986 40.1582 32.183 40.4105C32.1413 37.1731 32.1413 33.9778 32.1413 30.6984ZM39.6883 27.7554C37.8537 25.6953 35.7272 24.7703 33.142 24.8964C30.9739 25.0226 28.2636 26.452 27.7633 27.7554C31.6827 27.7554 35.5604 27.7554 39.6883 27.7554ZM128.125 34.3142C130.168 34.9869 130.252 36.7106 130.419 38.3924C130.502 39.2753 130.294 40.4105 130.836 41.1252C129.918 41.1252 128.709 41.1252 127.625 41.1252C127.458 41.1252 127.208 40.7888 127.166 40.5786C127.041 39.7378 126.958 38.8969 126.874 38.056C126.708 36.3322 125.999 35.7016 124.248 35.6595C123.58 35.6595 122.955 35.6595 122.246 35.6595C122.246 37.5095 122.246 39.2753 122.246 41.0832C121.037 41.0832 119.911 41.0832 118.744 41.0832C118.744 36.2482 118.744 31.4552 118.744 26.5361C119.119 26.5361 119.494 26.5361 119.87 26.5361C122.163 26.5782 124.456 26.4941 126.749 26.6622C128.918 26.8304 130.335 28.1758 130.627 30.1098C130.919 31.9177 130.21 33.3051 128.542 34.1039C128.459 34.1039 128.376 34.188 128.125 34.3142ZM122.288 29.353C122.288 30.5723 122.288 31.7495 122.288 32.9267C123.414 32.9267 124.456 32.9688 125.54 32.9267C126.583 32.8426 127.166 32.1279 127.125 31.1609C127.083 30.1939 126.499 29.4792 125.457 29.3951C124.456 29.311 123.414 29.353 122.288 29.353ZM72.9199 34.8607C72.9199 33.8937 72.9199 33.0108 72.9199 32.0859C70.7935 32.0859 68.7504 32.0859 66.6656 32.0859C66.6656 31.1609 66.6656 30.3621 66.6656 29.4371C69.1256 29.4371 71.544 29.4371 73.9623 29.4371C73.9623 28.4281 73.9623 27.5031 73.9623 26.5361C70.3348 26.5361 66.7073 26.5361 63.1214 26.5361C63.1214 31.4132 63.1214 36.2061 63.1214 41.0411C66.7906 41.0411 70.4182 41.0411 74.0874 41.0411C74.0874 40.0321 74.0874 39.0651 74.0874 38.056C71.5857 38.056 69.1256 38.056 66.6239 38.056C66.6239 36.9629 66.6239 35.9959 66.6239 34.9028C68.7921 34.8607 70.8352 34.8607 72.9199 34.8607ZM148.181 51.0054H145.471C145.471 51.0054 145.471 60.7595 145.471 65.5945C146.43 65.5945 147.305 65.5945 148.306 65.5945C148.306 62.3151 148.306 59.0357 148.306 55.8404C150.182 58.9096 154.31 65.6365 154.31 65.6365H157.062V51.0054H154.269C154.269 51.0054 154.269 57.6903 154.269 61.0538C152.392 57.8585 148.181 51.0054 148.181 51.0054ZM116.034 41.0832H112.323L111.405 38.4765L106.36 38.4344L105.526 41.0832H101.982C101.982 41.0832 102.858 38.6446 103.275 37.4674C104.484 34.0199 107.152 26.4941 107.152 26.4941H110.822L115.95 40.7468L116.034 41.0832ZM108.904 30.278C108.32 32.212 107.152 35.9539 107.152 35.9539H110.613C110.613 35.9959 109.487 32.212 108.904 30.278ZM24.3025 65.5945C27.8884 65.5945 31.3908 65.5945 34.935 65.5945C34.935 64.7957 34.935 64.0389 34.935 63.198C32.3498 63.198 29.8064 63.198 27.2212 63.198C27.2212 61.8526 27.2212 60.5493 27.2212 59.2039C29.4728 59.2039 31.6827 59.2039 33.8509 59.2039C33.8509 58.363 33.8509 57.6062 33.8509 56.7654C31.5993 56.7654 29.3894 56.7654 27.2212 56.7654C27.2212 55.6302 27.2212 54.6211 27.2212 53.486C28.5138 53.486 29.7647 53.486 31.0155 53.486C32.2664 53.486 33.559 53.486 34.8099 53.486C34.8099 52.6031 34.8099 51.8463 34.8099 51.0475C31.2657 51.0475 27.805 51.0475 24.3025 51.0475C24.3025 55.9665 24.3025 60.7595 24.3025 65.5945ZM47.1936 51.5099C44.9003 50.4168 42.607 50.4588 40.3554 51.6361C38.8544 52.4349 38.3123 53.8223 38.3957 55.5041C38.4791 57.0597 39.313 58.0687 40.689 58.6153C41.6063 58.9937 42.607 59.2039 43.566 59.4982C44.3582 59.7504 45.1922 59.9607 45.9844 60.255C46.5681 60.4652 46.9017 60.9697 46.9434 61.6424C46.9434 62.3571 46.6515 62.8196 46.0678 63.156C44.0247 64.3752 41.5229 63.4082 40.7724 61.222C39.8551 61.222 38.9378 61.222 38.0205 61.222C38.0205 62.7776 38.7293 64.2491 40.0636 64.9638C42.4819 66.2672 45.0254 66.3933 47.5688 65.2161C49.2367 64.4173 49.9038 62.9878 49.8621 61.1799C49.8204 59.3721 48.8197 58.2369 47.1936 57.6483C46.1929 57.3119 45.1922 57.1017 44.1915 56.8074C43.4826 56.5972 42.7321 56.429 42.065 56.0927C41.1477 55.6302 41.0643 54.5371 41.7731 53.8223C43.1491 52.4349 46.0261 53.1076 46.6932 54.9154C46.7349 55.0836 46.9851 55.2938 47.1102 55.2938C47.8607 55.3359 48.6529 55.2938 49.4868 55.2938C49.4451 53.6962 48.6112 52.2247 47.1936 51.5099ZM116.659 58.321C116.659 59.7925 116.45 61.264 115.825 62.6094C114.824 64.7957 113.073 65.9308 110.696 65.9308C108.278 65.9308 106.443 64.8377 105.484 62.6094C104.275 59.8345 104.234 56.9756 105.443 54.1587C106.443 51.8463 108.278 50.7111 110.78 50.7111C113.198 50.7111 115.116 52.0145 115.95 54.3689C116.409 55.6722 116.617 57.7324 116.659 58.321ZM113.198 55.0836C112.823 53.7803 111.864 53.1496 110.655 53.1496C109.446 53.1496 108.528 53.7382 108.07 55.0416C107.319 57.2278 107.319 59.4561 108.07 61.6424C108.528 62.9457 109.446 63.5764 110.696 63.5344C111.864 63.5344 112.781 62.8617 113.198 61.5583C113.907 59.2039 113.865 57.6903 113.198 55.0836ZM100.898 61.7685C100.106 64.4593 98.1043 65.9729 95.4774 65.9729C92.8923 66.0149 90.8492 64.5434 89.9319 61.9787C89.098 59.5402 89.098 57.0597 89.9736 54.6211C90.8909 52.0985 92.9757 50.7111 95.5608 50.7531C98.1043 50.7952 100.064 52.2667 100.856 54.8314C101.607 56.9335 101.607 59.5402 100.898 61.7685ZM97.9375 55.0836C97.5205 53.7382 96.6032 53.1496 95.4357 53.1496C94.2266 53.1496 93.3092 53.7803 92.8506 55.0836C92.1001 57.2699 92.1418 59.4561 92.8923 61.6424C93.351 62.9037 94.2683 63.5344 95.4357 63.5344C96.6449 63.5344 97.5622 62.9457 97.9792 61.6004C98.6046 59.5402 98.6046 57.9005 97.9375 55.0836ZM90.5156 26.5361C90.5156 31.4132 90.5156 36.2482 90.5156 41.0411C91.6831 41.0411 92.8089 41.0411 94.0598 41.0411C94.0598 39.1492 94.0598 37.2992 94.0598 35.4073C96.1029 35.4073 98.0626 35.4073 100.022 35.4073C100.022 34.4403 100.022 33.5153 100.022 32.5063C98.0209 32.5063 96.0612 32.5063 94.1015 32.5063C94.1015 31.4552 94.1015 30.5302 94.1015 29.4792C96.4781 29.4792 98.8131 29.4792 101.19 29.4792C101.19 28.4701 101.19 27.5452 101.19 26.5361C97.5622 26.5361 94.0598 26.5361 90.5156 26.5361ZM123.497 53.4019C123.497 53.4019 127.458 53.4019 129.168 53.4019C129.418 53.4019 129.626 53.3598 129.877 53.3598C129.877 52.519 129.877 51.8042 129.877 51.0475C127.083 51.0475 124.331 51.0475 121.496 51.0475C121.037 53.6962 120.578 56.3029 120.12 58.9516C120.995 58.9516 122.371 58.9516 122.58 58.9516C123.706 58.1107 124.748 57.9846 125.707 58.1107C127.083 58.321 127.833 59.288 127.792 60.8856C127.75 62.3571 126.874 63.4503 125.54 63.5764C123.914 63.7025 122.663 63.198 122.205 61.5163C121.246 61.5163 120.37 61.5163 119.494 61.5163C119.619 62.9878 120.287 64.2491 121.537 64.9638C123.58 66.1831 125.749 66.3513 127.959 65.3422C130.043 64.3752 131.086 62.1469 130.669 59.7504C130.252 57.4381 128.709 55.9665 126.374 55.7143C125.207 55.5881 124.081 55.8404 122.955 56.5972C123.038 55.6722 123.497 53.4019 123.497 53.4019ZM183.873 51.2997C180.829 49.9964 176.034 50.6691 174.533 55.6722C174.324 56.3029 174.241 57.0176 174.158 57.6903C173.616 63.0719 177.91 66.9399 182.997 65.7206C185.29 65.174 187 63.156 187 61.0117C186.083 61.0117 185.165 61.0117 184.248 61.0117C183.498 64.123 180.037 63.9968 178.577 62.6094C176.659 60.7174 176.534 56.2188 178.411 54.2848C178.494 54.2007 178.577 54.1166 178.661 54.0325C180.579 52.4349 183.039 53.1496 184.165 55.6302C185.082 55.6302 185.958 55.6302 186.875 55.6302C186.958 53.9485 185.666 52.0985 183.873 51.2997ZM78.8408 55.1257C78.9242 54.8314 79.0493 54.495 79.1743 54.2428C79.6747 53.3598 80.6337 52.9814 81.6344 53.1917C82.4683 53.3598 82.9687 54.0325 83.1355 55.0416C83.2605 56.1347 82.8019 57.0176 82.0097 57.7324C81.0923 58.5312 80.0916 59.2459 79.1326 60.0448C77.9235 61.0117 76.8394 62.1049 76.2973 63.6184C76.0888 64.2491 75.9638 64.9218 75.797 65.5945C79.3411 65.5945 82.7185 65.5945 86.0959 65.5945C86.0959 64.7957 86.0959 64.0809 86.0959 63.2821C83.886 63.2821 81.7595 63.2821 79.4662 63.2821C79.7581 62.9457 79.8832 62.6514 80.0916 62.4833C80.8005 61.8947 81.551 61.3061 82.3015 60.7174C83.1771 60.0027 84.1778 59.3721 84.9284 58.5312C87.305 55.8404 85.9291 51.594 82.51 50.9213C81.4676 50.7111 80.3001 50.7952 79.2994 51.0475C77.1729 51.552 75.797 53.9484 76.2139 56.0927C77.0478 56.0927 77.8818 56.0927 78.7157 56.0927C78.7157 55.7143 78.7574 55.42 78.8408 55.1257ZM77.4648 41.0411C80.8005 41.0411 84.0945 41.0411 87.4301 41.0411C87.4301 40.0321 87.4301 39.0651 87.4301 38.014C85.2619 38.014 83.1354 38.014 80.9256 38.014C80.9256 34.146 80.9256 30.32 80.9256 26.5361C79.7164 26.5361 78.6323 26.5361 77.4648 26.5361C77.4648 31.4132 77.4648 36.2061 77.4648 41.0411ZM169.738 51.0054C169.738 51.0054 167.57 55.462 166.611 57.4381C166.486 57.2699 166.402 57.1437 166.361 57.0176C165.485 55.2098 163.4 51.0475 163.4 51.0475H160.273C160.273 51.0475 163.358 56.8494 164.734 59.4561C164.943 59.8766 165.068 60.3391 165.068 60.8015C165.11 62.3992 165.068 63.9968 165.068 65.6365C166.069 65.6365 166.986 65.6365 167.945 65.6365C167.945 63.9548 167.945 62.3571 167.945 60.7174C167.945 60.3391 168.07 59.8766 168.237 59.5402C169.112 57.8164 170.03 56.1347 170.947 54.453C171.531 53.3598 172.782 51.0475 172.782 51.0475H169.738V51.0054ZM59.5356 53.486C61.0366 53.486 62.4126 53.486 63.8302 53.486C63.8302 52.6451 63.8302 51.8463 63.8302 51.0895C59.9525 51.0895 56.1582 51.0895 52.3222 51.0895C52.3222 51.8883 52.3222 52.6871 52.3222 53.528C53.7815 53.528 55.1575 53.528 56.6585 53.528C56.6585 57.6062 56.6585 61.6004 56.6585 65.5945C57.6175 65.5945 58.5349 65.5945 59.5773 65.5945C59.5356 61.5583 59.5356 57.5642 59.5356 53.486ZM55.7829 29.5212C57.284 29.5212 58.6182 29.5212 60.0359 29.5212C60.0359 28.6803 60.0359 27.3349 60.0359 26.5782C56.1582 26.5782 51.8635 26.5782 47.9858 26.5782C47.9858 27.377 47.9858 28.7224 47.9858 29.5632C49.4451 29.5632 50.8211 29.5632 52.2805 29.5632C52.2805 33.6415 52.2805 37.047 52.2805 41.0832C53.2395 41.0832 54.7405 41.0832 55.7829 41.0832C55.7829 37.0049 55.7829 33.5574 55.7829 29.5212ZM136.465 66.8137C136.756 65.5104 136.798 62.7776 136.798 62.7776H133.838V65.5945C133.838 65.5945 134.755 65.5945 135.214 65.5945C135.255 66.4774 134.963 67.2342 134.296 67.6967C133.796 68.033 133.713 68.4534 133.879 69C135.172 68.7057 136.214 68.075 136.465 66.8137ZM67.7497 65.5524C67.7497 64.5854 67.7497 63.6605 67.7497 62.7355C66.7906 62.7355 65.8733 62.7355 64.9143 62.7355C64.9143 63.7025 64.9143 64.6275 64.9143 65.5524C65.8733 65.5524 66.7906 65.5524 67.7497 65.5524Z" fill="black"/>
</g>
<defs>
<clipPath id="clip0_1345_23581">
<rect width="210" height="89.9999" fill="white"/>
</clipPath>
</defs>
</svg>
